HIERARCHY
ROOT Hips
{
	OFFSET -0.001795 -0.223333 0.028219
	CHANNELS 6 Xposition Yposition Zposition Zrotation Yrotation Xrotation 
	JOINT LeftUpLeg
	{
		OFFSET 0.069520 -0.091406 -0.006815
		CHANNELS 3 Zrotation Yrotation Xrotation
		JOINT LeftLeg
		{
			OFFSET 0.034277 -0.375199 -0.004496
			CHANNELS 3 Zrotation Yrotation Xrotation
			JOINT LeftFoot
			{
				OFFSET -0.013596 -0.397961 -0.043693
				CHANNELS 3 Zrotation Yrotation Xrotation
				JOINT LeftToe
				{
					OFFSET 0.026358 -0.055791 0.119288
					CHANNELS 3 Zrotation Yrotation Xrotation
					End Site
					{
						OFFSET 0.000000 0.000000 0.000000
					}
				}
			}
		}
	}
	JOINT RightUpLeg
	{
		OFFSET -0.067670 -0.090522 -0.004320
		CHANNELS 3 Zrotation Yrotation Xrotation
		JOINT RightLeg
		{
			OFFSET -0.038290 -0.382569 -0.008850
			CHANNELS 3 Zrotation Yrotation Xrotation
			JOINT RightFoot
			{
				OFFSET 0.015774 -0.398415 -0.042312
				CHANNELS 3 Zrotation Yrotation Xrotation
				JOINT RightToe
				{
					OFFSET -0.025372 -0.048144 0.123348
					CHANNELS 3 Zrotation Yrotation Xrotation
					End Site
					{
						OFFSET 0.000000 0.000000 0.000000
					}
				}
			}
		}
	}
	JOINT Spine
	{
		OFFSET -0.002533 0.108963 -0.026696
		CHANNELS 3 Zrotation Yrotation Xrotation
		JOINT Spine1
		{
			OFFSET 0.005487 0.135180 0.001092
			CHANNELS 3 Zrotation Yrotation Xrotation
			JOINT Spine2
			{
				OFFSET 0.001457 0.052922 0.025425
				CHANNELS 3 Zrotation Yrotation Xrotation
				JOINT Neck
				{
					OFFSET -0.002778 0.213870 -0.042857
					CHANNELS 3 Zrotation Yrotation Xrotation
					JOINT Head
					{
						OFFSET 0.005152 0.064970 0.051349
						CHANNELS 3 Zrotation Yrotation Xrotation
						End Site
						{
							OFFSET 0.000000 0.000000 0.000000
						}
					}
				}
				JOINT LeftShoulder
				{
					OFFSET 0.078845 0.121749 -0.034090
					CHANNELS 3 Zrotation Yrotation Xrotation
					JOINT LeftArm
					{
						OFFSET 0.090977 0.030469 -0.008868
						CHANNELS 3 Zrotation Yrotation Xrotation
						JOINT LeftForeArm
						{
							OFFSET 0.259612 -0.012772 -0.027456
							CHANNELS 3 Zrotation Yrotation Xrotation
							JOINT LeftHand
							{
								OFFSET 0.249234 0.008986 -0.001171
								CHANNELS 3 Zrotation Yrotation Xrotation
								End Site
								{
									OFFSET 0.000000 0.000000 0.000000
								}
							}
						}
					}
				}
				JOINT RightShoulder
				{
					OFFSET -0.081759 0.118833 -0.038615
					CHANNELS 3 Zrotation Yrotation Xrotation
					JOINT RightArm
					{
						OFFSET -0.096012 0.032551 -0.009143
						CHANNELS 3 Zrotation Yrotation Xrotation
						JOINT RightForeArm
						{
							OFFSET -0.253742 -0.013329 -0.021401
							CHANNELS 3 Zrotation Yrotation Xrotation
							JOINT RightHand
							{
								OFFSET -0.255298 0.007772 -0.005559
								CHANNELS 3 Zrotation Yrotation Xrotation
								End Site
								{
									OFFSET 0.000000 0.000000 0.000000
								}
							}
						}
					}
				}
			}
		}
	}
}
MOTION
Frames: 16
Frame Time: 0.050000
0.000000 0.879193 0.000000 2.013022 5.633609 11.072692 18.103112 1.187015 -42.486621 -25.901969 9.156873 34.211727 15.732514 29.764676 11.692020 0.000000 0.000000 0.000000 -14.588530 -2.029039 -44.740871 15.004022 -7.851425 46.418436 -9.044746 -22.034651 1.520086 0.000000 0.000000 0.000000 5.597432 -6.097179 47.694416 -5.363233 1.944036 -21.776901 -3.071434 1.258507 23.419686 13.792138 -8.245559 -15.033737 0.000000 0.000000 0.000000 -11.451349 -35.881213 15.909669 -29.569791 -42.596364 4.612268 17.685075 -15.238289 -1.705630 0.000000 0.000000 0.000000 16.645164 24.267692 13.075176 27.667667 52.562860 6.637563 -16.422013 7.214541 -0.338196 0.000000 0.000000 0.000000 
-0.000110 0.860750 -0.002701 1.935480 5.908395 12.261067 21.218320 2.378689 -46.446762 -29.718665 11.488263 36.548161 16.032743 29.944771 13.961318 0.000000 0.000000 0.000000 -15.975899 -3.148635 -49.987939 17.042540 -10.167512 52.129089 -9.407219 -22.833322 1.556358 0.000000 0.000000 0.000000 5.189835 -6.279330 49.514182 -5.090630 1.840086 -22.805751 -2.953072 2.322406 24.393359 14.432436 -7.947495 -17.366976 0.000000 0.000000 0.000000 -10.370456 -37.640915 16.312588 -26.848379 -44.355990 4.113386 18.412909 -13.801210 -1.628509 0.000000 0.000000 0.000000 16.416492 24.625770 13.625864 24.754740 55.501057 5.990386 -18.961747 5.741866 -0.187914 0.000000 0.000000 0.000000 
-0.000217 0.844834 -0.004606 2.255072 5.909116 11.735617 22.149121 2.884195 -48.463531 -32.094137 13.774566 40.568835 15.762188 30.044973 10.771960 0.000000 0.000000 0.000000 -17.183552 -3.897680 -51.532004 18.018195 -11.643477 56.173270 -9.017565 -22.227869 -2.498887 0.000000 0.000000 0.000000 4.454879 -6.422570 53.063714 -4.497153 1.707598 -23.216353 -3.572391 2.200225 23.515710 13.386790 -8.281652 -13.433620 0.000000 0.000000 0.000000 -9.761574 -37.911655 16.280730 -24.141108 -45.155165 3.480048 17.862904 -11.814289 -1.336858 0.000000 0.000000 0.000000 19.253677 26.492788 15.321456 17.061536 53.867200 2.269933 -17.453030 5.573128 -0.204929 0.000000 0.000000 0.000000 
-0.000602 0.828939 -0.005965 1.983459 5.722491 11.974113 24.891023 4.213276 -50.414806 -35.584545 16.125069 41.632133 15.785799 30.025808 10.846678 0.000000 0.000000 0.000000 -17.496861 -4.448819 -55.357355 18.296266 -12.855712 61.303424 -8.912650 -21.924304 -2.183085 0.000000 0.000000 0.000000 4.587778 -7.021651 56.613942 -5.713085 1.968039 -23.340328 -3.664572 1.727466 22.620154 12.626830 -7.972765 -12.399982 0.000000 0.000000 0.000000 -7.845355 -38.917216 16.318710 -21.759707 -45.647517 2.918971 19.467133 -11.255301 -1.422086 0.000000 0.000000 0.000000 18.592798 27.153639 15.305422 12.879062 54.708146 0.636675 -17.456313 5.905201 -0.262306 0.000000 0.000000 0.000000 
-0.000931 0.809714 -0.007103 1.989280 5.712898 11.944726 26.418187 5.263059 -53.691309 -37.884468 18.809662 45.150075 15.810338 30.054443 10.517906 0.000000 0.000000 0.000000 -18.242541 -5.234369 -58.263352 19.080561 -14.191980 64.669853 -9.091797 -22.367039 -2.818174 0.000000 0.000000 0.000000 3.344315 -6.802715 60.101958 -5.679290 1.934363 -24.516780 -3.238530 2.286570 22.495557 11.478449 -7.258317 -11.561728 0.000000 0.000000 0.000000 -6.721961 -40.265106 16.509673 -18.631638 -46.463434 2.023671 19.872613 -9.490665 -1.226929 0.000000 0.000000 0.000000 18.162412 28.507751 16.074175 8.169866 54.809743 -1.357376 -17.166594 3.876847 -0.036822 0.000000 0.000000 0.000000 
-0.001356 0.789429 -0.007854 1.839577 5.654434 11.814884 28.538176 6.563132 -55.767472 -40.876312 21.681195 47.397136 14.722304 28.503476 9.213926 0.000000 0.000000 0.000000 -18.798770 -5.883699 -60.750489 19.672836 -15.634583 68.761932 -8.676748 -21.408313 -5.383386 0.000000 0.000000 0.000000 3.216693 -7.160001 63.123183 -6.873159 2.137273 -25.831103 -2.772603 2.254838 22.951951 11.216809 -7.430567 -10.212441 0.000000 0.000000 0.000000 -6.640335 -41.413959 17.036067 -15.028272 -46.004745 0.804353 20.170713 -8.776240 -1.160739 0.000000 0.000000 0.000000 17.373987 29.231819 16.200156 3.939506 54.793053 -3.220166 -16.184073 3.046343 0.040556 0.000000 0.000000 0.000000 
-0.001536 0.765785 -0.007937 1.677523 5.325316 11.814552 30.268896 7.937253 -58.052296 -42.992038 24.227347 49.516193 15.697248 29.845115 9.454447 0.000000 0.000000 0.000000 -19.429355 -6.565245 -63.664799 20.702445 -17.339198 72.339354 -8.813733 -21.827466 -7.044140 0.000000 0.000000 0.000000 2.799842 -7.110884 65.521561 -7.093252 2.166075 -26.195844 -3.060930 2.415613 22.733117 10.402117 -6.865002 -9.849681 0.000000 0.000000 0.000000 -5.960077 -41.982792 17.063641 -11.550672 -45.799581 -0.296513 19.769962 -7.671724 -0.988626 0.000000 0.000000 0.000000 17.840937 30.022542 16.834404 -0.088946 54.688109 -4.988506 -16.776468 2.367288 0.112127 0.000000 0.000000 0.000000 
-0.001756 0.741901 -0.007161 1.364847 5.152029 11.324457 32.050498 9.271912 -59.665057 -45.592501 27.259318 51.828322 16.032104 30.486358 7.988983 0.000000 0.000000 0.000000 -19.835499 -7.148348 -66.165285 21.371478 -19.085068 76.618669 -8.906539 -22.101749 -8.534609 0.000000 0.000000 0.000000 2.807860 -7.410309 68.037903 -8.081059 2.321249 -27.117536 -3.103892 2.569507 22.885574 10.184672 -7.153452 -7.968328 0.000000 0.000000 0.000000 -6.519087 -43.116867 17.730575 -7.984212 -44.067801 -1.407077 19.118060 -6.075838 -0.749501 0.000000 0.000000 0.000000 18.373081 30.678790 17.369675 -2.993412 54.126964 -6.204867 -16.882936 2.929332 0.028547 0.000000 0.000000 0.000000 
-0.001854 0.718393 -0.005441 1.120503 5.221672 10.245270 33.462707 10.371836 -61.225496 -47.640423 30.135704 54.504551 16.478992 31.079017 7.680249 0.000000 0.000000 0.000000 -20.112901 -7.706827 -68.047993 21.569163 -20.575008 81.016477 -9.042305 -22.480384 -9.790190 0.000000 0.000000 0.000000 2.414774 -7.397408 69.831568 -7.902586 2.307330 -27.167299 -3.301440 3.344395 23.106288 10.339090 -7.312177 -7.754097 0.000000 0.000000 0.000000 -6.598712 -43.899452 17.881117 -5.193247 -42.860848 -2.187597 18.368865 -4.167254 -0.486706 0.000000 0.000000 0.000000 18.636639 30.930914 17.726704 -5.914033 53.609583 -7.320393 -16.881236 2.682985 0.031287 0.000000 0.000000 0.000000 
-0.002060 0.697297 -0.002841 0.809565 4.914125 9.116673 34.944195 11.580379 -62.051018 -49.133076 32.851077 57.224354 16.345081 30.828688 7.122396 0.000000 0.000000 0.000000 -20.071421 -7.877742 -70.011331 21.072446 -21.327805 85.565131 -8.915845 -22.103592 -10.641098 0.000000 0.000000 0.000000 1.931275 -7.132890 71.637554 -7.984693 2.332152 -27.311393 -3.292175 3.663187 23.154789 10.665824 -7.765676 -7.071623 0.000000 0.000000 0.000000 -7.306573 -44.950666 18.498829 -2.646055 -40.981889 -2.745561 17.512402 -1.875053 -0.191789 0.000000 0.000000 0.000000 18.737350 31.069353 17.835778 -6.356146 53.960296 -7.527497 -17.446761 2.602966 0.031959 0.000000 0.000000 0.000000 
-0.002233 0.680825 0.000129 0.631836 5.092413 8.309762 35.663652 12.173654 -63.056758 -49.579973 34.666042 59.801863 16.792842 31.534685 6.653311 0.000000 0.000000 0.000000 -20.024116 -8.198734 -71.398097 20.430520 -21.784244 89.234992 -9.078537 -22.586161 -11.085767 0.000000 0.000000 0.000000 1.365850 -6.866388 72.373066 -8.055083 2.347697 -27.651911 -2.943590 3.624586 23.929877 10.347851 -7.813466 -6.151255 0.000000 0.000000 0.000000 -8.697765 -45.501684 19.200158 -0.497610 -39.606083 -3.171152 16.793072 0.040867 0.030693 0.000000 0.000000 0.000000 19.285712 31.426655 18.137351 -6.794491 54.299769 -7.791606 -17.608458 3.843271 -0.142693 0.000000 0.000000 0.000000 
-0.002328 0.670450 0.002912 0.433001 5.021017 7.604962 36.020583 12.540902 -63.455684 -49.381126 35.934150 62.222585 16.577849 31.348719 5.648430 0.000000 0.000000 0.000000 -19.637179 -8.063333 -72.364224 19.373065 -21.362249 92.068528 -9.152259 -22.825817 -11.359322 0.000000 0.000000 0.000000 0.915578 -6.558908 73.015851 -7.896137 2.326698 -27.690766 -2.997696 3.765158 23.912688 10.826854 -8.257184 -6.021835 0.000000 0.000000 0.000000 -9.222134 -45.731025 19.426565 0.107519 -39.070306 -3.233678 16.763414 1.509057 0.196063 0.000000 0.000000 0.000000 18.968299 31.391928 17.962833 -5.289256 54.930318 -7.176767 -17.814055 5.589635 -0.372270 0.000000 0.000000 0.000000 
-0.002129 0.666654 0.005497 0.449815 5.162421 7.572754 35.788926 12.303062 -63.340734 -49.515580 36.408145 62.900531 17.087817 32.341996 4.800361 0.000000 0.000000 0.000000 -19.136268 -7.820193 -72.594216 18.401778 -20.631306 93.474100 -9.065580 -22.592432 -12.057552 0.000000 0.000000 0.000000 1.007443 -6.606356 72.345043 -7.860345 2.327232 -27.571423 -3.418116 3.828769 24.168621 11.089534 -8.453897 -6.162589 0.000000 0.000000 0.000000 -9.359765 -46.043973 19.577337 0.186575 -38.749148 -3.218393 17.220345 1.856674 0.241655 0.000000 0.000000 0.000000 19.456948 31.086136 17.981502 -2.701715 55.956159 -6.202251 -18.248967 7.282538 -0.595010 0.000000 0.000000 0.000000 
-0.001595 0.667796 0.007995 0.393148 5.167462 7.251657 34.823983 11.646074 -62.901529 -48.735050 36.147769 63.740541 17.281009 32.937669 3.693251 0.000000 0.000000 0.000000 -18.424675 -7.278851 -72.371163 17.220457 -19.438786 94.528286 -9.116640 -22.722517 -11.639969 0.000000 0.000000 0.000000 0.911749 -6.512899 72.180659 -7.885802 2.323517 -27.772638 -3.541039 3.621346 24.514704 11.544270 -8.571017 -7.345330 0.000000 0.000000 0.000000 -9.362108 -45.827707 19.463075 -0.225725 -38.896935 -3.118882 17.768677 2.731289 0.360122 0.000000 0.000000 0.000000 19.971259 30.805437 17.897918 -0.768888 56.194701 -5.379073 -18.485484 9.752186 -0.927473 0.000000 0.000000 0.000000 
-0.000828 0.672178 0.010649 0.608795 5.451484 7.177710 34.099969 10.868221 -61.971869 -48.330262 35.582919 63.639911 17.119412 32.936823 2.803893 0.000000 0.000000 0.000000 -18.459929 -7.325199 -71.479135 16.262767 -18.359044 94.729427 -8.808240 -21.727605 -11.613352 0.000000 0.000000 0.000000 1.197627 -6.733488 71.259690 -7.916076 2.345853 -27.521189 -4.004531 3.439532 24.734702 11.609837 -8.512637 -7.864257 0.000000 0.000000 0.000000 -9.771123 -45.791988 19.602539 -0.733776 -38.812093 -2.982181 19.026134 2.337698 0.338897 0.000000 0.000000 0.000000 20.491535 30.289129 17.754198 1.639508 56.290186 -4.343374 -18.912703 12.281566 -1.280993 0.000000 0.000000 0.000000 
-0.000023 0.680276 0.013165 0.798138 5.762806 7.105690 33.680320 10.124501 -60.379503 -48.507072 34.672504 62.191458 17.307246 33.360847 2.639357 0.000000 0.000000 0.000000 -18.095876 -7.009505 -70.018152 15.201281 -16.880249 93.819472 -8.399796 -20.406752 -11.947497 0.000000 0.000000 0.000000 1.435595 -6.774844 69.324088 -8.062299 2.426913 -26.524347 -3.968265 2.974763 24.814746 11.915733 -8.582366 -8.763117 0.000000 0.000000 0.000000 -9.941297 -45.514996 19.576606 -2.186951 -38.547173 -2.601687 20.803298 1.795893 0.299090 0.000000 0.000000 0.000000 21.505387 30.165624 17.905587 3.006058 55.460508 -3.723666 -19.235993 14.777790 -1.642481 0.000000 0.000000 0.000000 
